# xmcd
#
# Track frame offsets:
# 150
# 21233
# 32885
# 52485
# 62782
# 87281
# 104901
# 129206
# 143112
# 163502
# 170747
# 184281
#
# Disc length: 2571 seconds
#
# Revision: 1
# Processed by: cddbd v1.5.2PL0 Copyright (c) Steve Scherf et al.
# Submitted via: CdCzar 6.3b
#
DISCID=b40a090c
DTITLE=Henry McCullough - Poor Man's Moon
DYEAR=2008
DGENRE=country
TTITLE0=The Burial Ground
TTITLE1=Big Old River
TTITLE2=I've Got A Secret
TTITLE3=Too Late To Worry
TTITLE4=Poor Man's Moon
TTITLE5=Walk With Me
TTITLE6=Belfast Train
TTITLE7=Skin and Bone
TTITLE8=Fix Me Up Jesus
TTITLE9=All Gone Crazy
TTITLE10=Time To Put The Snakes To Bed
TTITLE11=Poor Man's Moon (Reprise)
EXTD=
EXTT0=
EXTT1=
EXTT2=
EXTT3=
EXTT4=
EXTT5=
EXTT6=
EXTT7=
EXTT8=
EXTT9=
EXTT10=
EXTT11=
PLAYORDER=
